{
  "source": "C:\\Users\\Peter\\Desktop\\stuff\\MIUN\\quantitative_research\\video_compression\\videos\\BVI-HD\\BVI-HD_CDVL_videos\\ORIG\\CarpetCircleFast_1920x1080_60fps.mp4",
  "output": "C:\\Users\\Peter\\Desktop\\stuff\\MIUN\\quantitative_research\\video_compression\\compressed_videos\\BVI-HD\\vp9\\4\\CarpetCircleFast_1920x1080_60fps_vp9.webm",
  "codec": "vp9",
  "ok": "Input #0, mov,mp4,m4a,3gp,3g2,mj2, from 'C:\\Users\\Peter\\Desktop\\stuff\\MIUN\\quantitative_research\\video_compression\\videos\\BVI-HD\\BVI-HD_CDVL_videos\\ORIG\\CarpetCircleFast_1920x1080_60fps.mp4':\n  Metadata:\n    major_brand     : isom\n    minor_version   : 512\n    compatible_brands: isomiso2avc1mp41\n    encoder         : Lavf54.28.101\n  Duration: 00:00:05.00, start: 0.000000, bitrate: 324759 kb/s\n  Stream #0:0[0x1](und): Video: h264 (High 4:4:4 Predictive) (avc1 / 0x31637661), yuv420p(progressive), 1920x1080, 324754 kb/s, 60 fps, 60 tbr, 60 tbn (default)\n    Metadata:\n      handler_name    : VideoHandler\n      vendor_id       : [0][0][0][0]\n[out#0/webm @ 00000273d96f0e00] Codec AVOption b:a (set bitrate (in bits/s)) has not been used for any stream. The most likely reason is either wrong type (e.g. a video option with no video streams) or that it is a private option of some decoder which was not actually used for any stream.\nStream mapping:\n  Stream #0:0 -> #0:0 (h264 (native) -> vp9 (libvpx-vp9))\nPress [q] to stop, [?] for help\n[libvpx-vp9 @ 00000273da0a4c00] v1.15.2-100-g40561f514\nOutput #0, webm, to 'C:\\Users\\Peter\\Desktop\\stuff\\MIUN\\quantitative_research\\video_compression\\compressed_videos\\BVI-HD\\vp9\\4\\CarpetCircleFast_1920x1080_60fps_vp9.webm':\n  Metadata:\n    major_brand     : isom\n    minor_version   : 512\n    compatible_brands: isomiso2avc1mp41\n    encoder         : Lavf62.3.100\n  Stream #0:0(und): Video: vp9, yuv420p(tv, progressive), 1920x1080, q=2-31, 4000 kb/s, 60 fps, 1k tbn (default)\n    Metadata:\n      encoder         : Lavc62.11.100 libvpx-vp9\n      handler_name    : VideoHandler\n      vendor_id       : [0][0][0][0]\n    Side data:\n      cpb: bitrate max/min/avg: 0/0/0 buffer size: 4000000 vbv_delay: N/A\nframe=    2 fps=0.0 q=48.0 size=       1KiB time=00:00:00.03 bitrate= 151.9kbits/s speed=0.0644x elapsed=0:00:00.51    \nframe=    9 fps=8.7 q=32.0 size=       1KiB time=00:00:00.15 bitrate=  33.8kbits/s speed=0.145x elapsed=0:00:01.03    \nframe=   15 fps=9.7 q=35.0 size=       1KiB time=00:00:00.25 bitrate=  20.3kbits/s speed=0.161x elapsed=0:00:01.55    \nframe=   21 fps= 10 q=29.0 size=       1KiB time=00:00:00.35 bitrate=  14.5kbits/s speed=0.17x elapsed=0:00:02.05    \nframe=   26 fps= 10 q=28.0 size=       1KiB time=00:00:00.43 bitrate=  11.7kbits/s speed=0.168x elapsed=0:00:02.58    \nframe=   33 fps= 11 q=26.0 size=       1KiB time=00:00:00.55 bitrate=   9.2kbits/s speed=0.178x elapsed=0:00:03.09    \nframe=   38 fps= 11 q=25.0 size=       1KiB time=00:00:00.63 bitrate=   8.0kbits/s speed=0.175x elapsed=0:00:03.61    \nframe=   44 fps= 11 q=27.0 size=       1KiB time=00:00:00.73 bitrate=   6.9kbits/s speed=0.177x elapsed=0:00:04.14    \nframe=   49 fps= 11 q=18.0 size=       1KiB time=00:00:00.81 bitrate=   6.2kbits/s speed=0.175x elapsed=0:00:04.66    \nframe=   55 fps= 11 q=26.0 size=       1KiB time=00:00:00.91 bitrate=   5.5kbits/s speed=0.177x elapsed=0:00:05.16    \nframe=   60 fps= 11 q=42.0 size=       1KiB time=00:00:01.00 bitrate=   5.1kbits/s speed=0.176x elapsed=0:00:05.68    \nframe=   66 fps= 11 q=41.0 size=       1KiB time=00:00:01.10 bitrate=   4.6kbits/s speed=0.177x elapsed=0:00:06.21    \nframe=   72 fps= 11 q=50.0 size=       1KiB time=00:00:01.20 bitrate=   4.2kbits/s speed=0.179x elapsed=0:00:06.71    \nframe=   79 fps= 11 q=36.0 size=       1KiB time=00:00:01.31 bitrate=   3.8kbits/s speed=0.182x elapsed=0:00:07.24    \nframe=   84 fps= 11 q=29.0 size=       1KiB time=00:00:01.40 bitrate=   3.6kbits/s speed=0.18x elapsed=0:00:07.76    \nframe=   90 fps= 11 q=51.0 size=       1KiB time=00:00:01.50 bitrate=   3.4kbits/s speed=0.181x elapsed=0:00:08.30    \nframe=   96 fps= 11 q=41.0 size=       1KiB time=00:00:01.60 bitrate=   3.2kbits/s speed=0.181x elapsed=0:00:08.82    \nframe=  102 fps= 11 q=48.0 size=       1KiB time=00:00:01.70 bitrate=   3.0kbits/s speed=0.182x elapsed=0:00:09.34    \nframe=  108 fps= 11 q=43.0 size=       1KiB time=00:00:01.80 bitrate=   2.8kbits/s speed=0.182x elapsed=0:00:09.86    \nframe=  115 fps= 11 q=45.0 size=       1KiB time=00:00:01.91 bitrate=   2.6kbits/s speed=0.184x elapsed=0:00:10.40    \nframe=  120 fps= 11 q=41.0 size=       1KiB time=00:00:02.00 bitrate=   2.5kbits/s speed=0.183x elapsed=0:00:10.93    \nframe=  128 fps= 11 q=27.0 size=       1KiB time=00:00:02.11 bitrate=   2.4kbits/s speed=0.185x elapsed=0:00:11.45    \nframe=  134 fps= 11 q=30.0 size=    1280KiB time=00:00:02.23 bitrate=4695.1kbits/s speed=0.186x elapsed=0:00:11.99    \nframe=  139 fps= 11 q=22.0 size=    1280KiB time=00:00:02.31 bitrate=4526.2kbits/s speed=0.185x elapsed=0:00:12.52    \nframe=  146 fps= 11 q=24.0 size=    1280KiB time=00:00:02.43 bitrate=4309.2kbits/s speed=0.186x elapsed=0:00:13.05    \nframe=  152 fps= 11 q=23.0 size=    1280KiB time=00:00:02.53 bitrate=4139.1kbits/s speed=0.186x elapsed=0:00:13.58    \nframe=  158 fps= 11 q=32.0 size=    1280KiB time=00:00:02.63 bitrate=3981.9kbits/s speed=0.186x elapsed=0:00:14.12    \nframe=  163 fps= 11 q=24.0 size=    1280KiB time=00:00:02.71 bitrate=3859.8kbits/s speed=0.185x elapsed=0:00:14.64    \nframe=  170 fps= 11 q=25.0 size=    1280KiB time=00:00:02.83 bitrate=3700.9kbits/s speed=0.187x elapsed=0:00:15.16    \nframe=  175 fps= 11 q=25.0 size=    1280KiB time=00:00:02.91 bitrate=3595.1kbits/s speed=0.186x elapsed=0:00:15.69    \nframe=  182 fps= 11 q=25.0 size=    1280KiB time=00:00:03.03 bitrate=3456.8kbits/s speed=0.187x elapsed=0:00:16.24    \nframe=  188 fps= 11 q=16.0 size=    1280KiB time=00:00:03.13 bitrate=3346.5kbits/s speed=0.187x elapsed=0:00:16.77    \nframe=  195 fps= 11 q=38.0 size=    1280KiB time=00:00:03.25 bitrate=3226.4kbits/s speed=0.188x elapsed=0:00:17.32    \nframe=  201 fps= 11 q=25.0 size=    1280KiB time=00:00:03.35 bitrate=3130.1kbits/s speed=0.187x elapsed=0:00:17.87    \nframe=  207 fps= 11 q=40.0 size=    1280KiB time=00:00:03.45 bitrate=3039.4kbits/s speed=0.187x elapsed=0:00:18.40    \nframe=  212 fps= 11 q=23.0 size=    1280KiB time=00:00:03.53 bitrate=2967.7kbits/s speed=0.187x elapsed=0:00:18.92    \nframe=  218 fps= 11 q=42.0 size=    1280KiB time=00:00:03.63 bitrate=2886.0kbits/s speed=0.187x elapsed=0:00:19.44    \nframe=  223 fps= 11 q=29.0 size=    1280KiB time=00:00:03.71 bitrate=2821.3kbits/s speed=0.186x elapsed=0:00:19.95    \nframe=  230 fps= 11 q=33.0 size=    1280KiB time=00:00:03.83 bitrate=2735.4kbits/s speed=0.187x elapsed=0:00:20.47    \nframe=  236 fps= 11 q=17.0 size=    1280KiB time=00:00:03.93 bitrate=2665.9kbits/s speed=0.187x elapsed=0:00:21.00    \nframe=  242 fps= 11 q=38.0 size=    1280KiB time=00:00:04.03 bitrate=2599.8kbits/s speed=0.187x elapsed=0:00:21.53    \nframe=  248 fps= 11 q=25.0 size=    1280KiB time=00:00:04.13 bitrate=2536.9kbits/s speed=0.187x elapsed=0:00:22.05    \nframe=  255 fps= 11 q=28.0 size=    1280KiB time=00:00:04.25 bitrate=2467.2kbits/s speed=0.188x elapsed=0:00:22.57    \nframe=  261 fps= 11 q=25.0 size=    2560KiB time=00:00:04.35 bitrate=4821.0kbits/s speed=0.188x elapsed=0:00:23.11    \nframe=  268 fps= 11 q=33.0 size=    2560KiB time=00:00:04.46 bitrate=4695.1kbits/s speed=0.189x elapsed=0:00:23.65    \nframe=  275 fps= 11 q=26.0 size=    2560KiB time=00:00:04.58 bitrate=4575.6kbits/s speed=0.189x elapsed=0:00:24.19    \nframe=  276 fps= 11 q=28.0 size=    2560KiB time=00:00:04.60 bitrate=4559.0kbits/s speed=0.186x elapsed=0:00:24.72    \nframe=  276 fps= 11 q=28.0 size=    2560KiB time=00:00:04.60 bitrate=4559.0kbits/s speed=0.182x elapsed=0:00:25.24    \nframe=  276 fps= 11 q=28.0 size=    2560KiB time=00:00:04.60 bitrate=4559.0kbits/s speed=0.178x elapsed=0:00:25.77    \nframe=  276 fps= 10 q=28.0 size=    2560KiB time=00:00:04.60 bitrate=4559.0kbits/s speed=0.175x elapsed=0:00:26.30    \n[out#0/webm @ 00000273d96f0e00] video:3084KiB audio:0KiB subtitle:0KiB other streams:0KiB global headers:0KiB muxing overhead: 0.091337%\nframe=  300 fps= 11 q=26.0 Lsize=    3086KiB time=00:00:05.00 bitrate=5056.6kbits/s speed=0.189x elapsed=0:00:26.43    \n",
  "seconds": 26.626598596572876,
  "probe_out": {}
}